# xmcd CD database file
#
# Track frame offsets:
#	150
#	15385
#	28174
#	37396
#	49129
#	66022
#	79852
#	96117
#	106409
#	117191
#	137261
#	156240
#	166290
#	181183
#
# Disc length: 2750 seconds
#
# Revision: 0
# Processed by: cddbd v1.5.2PL0 Copyright (c) Steve Scherf et al.
# Submitted via: CDex 1.51
#
DISCID=b10abc0e
DTITLE=The King Khan and BBQ Show - The King Khan and BBQ Show
DYEAR=1900
DGENRE=Rhythmic Soul
TTITLE0=Waddlin' Around
TTITLE1=Fishfight
TTITLE2=Get Down
TTITLE3=Hold Me Tight
TTITLE4=Love You So
TTITLE5=Got it Made
TTITLE6=Am I the One
TTITLE7=Take Me Back
TTITLE8=Pig Pig
TTITLE9=Shake Real Low
TTITLE10=Bimbo's Theme
TTITLE11=Lil' Girl in The Woods
TTITLE12=Outta my Mind
TTITLE13=Mind Body and Soul
EXTD=
EXTT0=
EXTT1=
EXTT2=
EXTT3=
EXTT4=
EXTT5=
EXTT6=
EXTT7=
EXTT8=
EXTT9=
EXTT10=
EXTT11=
EXTT12=
EXTT13=
PLAYORDER=
